<?xml version="1.0" encoding="utf-8"?>
<!--  http://www.rosybit.com, ab.roshan39@gmail.com  -->
<svg version="1.1" id="Layer_1" xmlns="http://www.w3.org/2000/svg" xmlns:xlink="http://www.w3.org/1999/xlink" x="0px" y="0px"
	 width="505.24091px" height="259.98599px" viewBox="0 0 505.24091 259.98599"
	 style="enable-background:new 0 0 505.24091 259.98599;" xml:space="preserve">
<g>
	<g>
		<g>
			<path d="M441.08865,78.99403c-0.44901,0.63036-0.96454,1.57551-1.54633,2.83544c-0.31619,0.69645-0.69025,1.04459-1.1225,1.04459
				c-0.09976,0-0.19128-0.02483-0.27429-0.07462c-0.26624-0.14909-0.43256-0.22372-0.49878-0.22372
				c-0.03354,0-0.24948,0.29835-0.64853,0.89535c-0.73181,1.0944-1.33051,1.64159-1.79581,1.64159
				c-0.08331,0-0.15823-0.01629-0.22449-0.04964c-0.3826-0.1657-0.74811-0.24886-1.09735-0.24886
				c-0.78177,0-1.73761,0.46451-2.86816,1.3929c-1.89557,1.5589-3.78339,2.33804-5.6622,2.33804
				c-1.86252,0-3.15115-0.48064-3.86591-1.44254c-0.66525-0.87875-0.99759-2.10564-0.99759-3.6813
				c0-1.64159,0.44882-4.02928,1.34683-7.16338c0.14954-0.51369,0.22433-0.92839,0.22433-1.24364
				c0-0.3812-0.09976-0.57202-0.29929-0.57202c-0.63205,0-1.32184,1.07811-2.0701,3.23354
				c-1.57986,4.57648-2.36938,8.28259-2.36938,11.11819c0,4.47704,1.95358,6.71563,5.86124,6.71563
				c1.28027,0,2.59436-0.62182,3.94116-1.86547c0.88107-0.97819,1.77084-1.94831,2.66867-2.91006
				c0.49893-0.49755,1.039-0.74625,1.62125-0.74625c0.08301,0,0.19952,0,0.34909,0c0.16602,0.01675,0.29944,0.02483,0.3992,0.02483
				c0.68155,0,1.37164-0.24017,2.0701-0.72128c0.61484-0.4808,1.23837-0.96143,1.87057-1.4427
				c0.86432-0.66294,1.51282-1.06088,1.94537-1.19385c0.63174-0.19889,1.30942-0.8744,2.03271-2.02713
				c0.7233-1.15227,1.19293-2.2673,1.40918-3.3454c0.16602-0.82894,0.24933-1.46752,0.24933-1.91528
				C441.737,78.5213,441.52072,78.39703,441.08865,78.99403z"/>
			<path d="M419.81836,58.88903c-0.74826,1.791-1.33875,3.37457-1.77084,4.75087c-0.53244,3.25014-0.96454,6.18519-1.297,8.80497
				c-0.0498,0.36491-0.62354,1.01155-1.72089,1.94009c-1.33054,1.12775-2.48605,2.70248-3.46689,4.70851
				c-1.08105-2.81884-2.50262-4.22849-4.26492-4.22849c-0.73184,0-1.43835,0.25739-2.12009,0.77107
				c-6.25204,4.70959-13.68445,8.32433-22.29733,10.84467c-7.01709,2.0563-13.50171,3.0843-19.45416,3.0843
				c-2.74344,0-5.51202-0.25693-8.30542-0.77108c-3.00964-0.56364-5.26251-1.29344-6.75906-2.18894
				c-1.01434-0.61314-1.85413-1.26847-2.51892-1.96492c-1.59631-1.67464-2.39438-3.88825-2.39438-6.641
				c0-1.30974,0.19098-2.98485,0.57358-5.02439c0.31573-1.74104,0.63998-3.4903,0.97275-5.24811
				c0.03305-0.23209,0.0498-0.43114,0.0498-0.597c0-0.39794-0.08331-0.597-0.2493-0.597c-0.29929,0-0.62354,0.58071-0.97278,1.7412
				c-1.92908,6.55009-2.89316,11.78159-2.89316,15.69482c0,3.11765,0.60678,5.53032,1.82065,7.23801
				c1.36325,1.90704,3.23386,3.34152,5.61176,4.30296c3.04288,1.17725,6.94183,1.76602,11.69751,1.76602
				c5.70285,0,12.26239-1.21883,19.6785-3.65631c8.84561-2.91829,16.20325-6.8565,22.07303-11.81464
				c0.54858-0.46404,1.09732-0.92854,1.64609-1.39289c0.6983-0.49755,1.35504-0.74625,1.97034-0.74625
				c1.74585,0,2.90137,1.27716,3.46674,3.83039c0.11621,0.51431,0.17468,1.08633,0.17468,1.71637
				c0,0.3151-0.01675,0.72128-0.04996,1.21867c-0.03351,0.49755-0.0498,0.82087-0.0498,0.97012
				c0,0.46435,0.108,0.69645,0.32425,0.69645c0.23257,0,0.54861-0.63005,0.94778-1.89045
				c0.76456-2.38769,1.20532-3.73094,1.32184-4.02944c0.49881-1.45898,1.36328-2.80131,2.5939-4.01206
				c1.79581-1.75733,2.84335-2.83543,3.14261-3.23338c1.13055-1.54214,1.92041-3.55687,2.36938-6.04416
				c0.74826-5.43863,1.20532-9.27755,1.3718-11.51614c0.0498-0.26499,0.0748-0.46404,0.0748-0.597
				C421.11523,56.12822,420.68268,56.8332,419.81836,58.88903z"/>
		</g>
		<g>
			<path d="M334.82471,79.28493c0,0.46435-0.02499,0.9619-0.07486,1.49234c-0.13327,1.24365-0.56543,2.76082-1.29694,4.55166
				c-0.79807,1.94009-1.69598,3.5488-2.69363,4.82549c-1.46335,1.89029-3.20105,3.17506-5.21274,3.85521
				c-0.61533,0.19905-1.11411,0.2985-1.49646,0.2985c-0.54868,0-0.82306-0.1826-0.82306-0.5472
				c0-0.4974,0.40726-1.10262,1.22217-1.81567c1.28018-1.06104,2.56036-2.12239,3.84094-3.18375
				c1.61258-1.34325,2.56036-2.26341,2.84326-2.76096c0.1329-0.2487,0.19952-0.55542,0.19952-0.92033
				c0-0.81219-0.2829-1.67464-0.84802-2.58674c-0.64844-1.02799-1.51321-1.84064-2.59387-2.43749
				c2.16132-4.67624,3.37527-6.94772,3.64142-6.81523C333.72726,74.41832,334.82471,76.43304,334.82471,79.28493L334.82471,79.28493
				z"/>
			<path d="M324.01898,57.30081c0,0.31525-0.0585,0.75478-0.17462,1.31827c-0.31604,1.60855-0.77316,6.46693-1.37173,14.57561
				c-0.61539,8.02567-1.13092,13.05828-1.54642,15.09782c-0.71506,3.4658-1.94534,6.9395-3.69128,10.42175
				c-1.86237,3.69758-4.19009,6.71562-6.98349,9.05367c-3.1925,2.66959-6.49329,4.00462-9.9017,4.00462
				c-3.42545,0-6.06067-0.97012-7.90628-2.91006c-1.72955-1.82436-2.59387-4.31165-2.59387-7.46188
				c0-4.99134,2.00348-10.3223,6.0108-15.99332c0.26575-0.36459,0.50702-0.55542,0.72327-0.57218
				c0.19952-0.01629,0.29929,0.1162,0.29929,0.39811c0,0.23241-0.09152,0.50593-0.27438,0.82072
				c-2.34439,3.84715-3.51666,7.18013-3.51666,9.99897c0,2.65283,1.0058,4.70091,3.01788,6.14361
				c1.7291,1.22689,3.88229,1.84049,6.45978,1.84049c3.9072,0,7.31165-1.15646,10.21341-3.46967
				c2.90137-2.31322,4.80121-5.36866,5.69904-9.16569c0.28259-1.21029,0.61499-5.4138,0.99765-12.61053
				c0.39911-7.46188,0.75641-12.06349,1.07251-13.80453c0.3324-1.84065,1.14731-4.13711,2.44424-6.88986
				C323.67795,56.65417,324.01898,56.38902,324.01898,57.30081L324.01898,57.30081z"/>
		</g>
		<path d="M136.51199,86.49485c-0.28297,0-0.45752,0.05833-0.52376,0.17407c-0.38275,0.79605-0.45299,1.67573-0.94778,1.98989
			c-0.94586,0.60056-1.91965-0.03843-2.405-1.41916c-0.29985-0.85297-0.3158-2.04791-0.3158-3.2321
			c0-1.04459,0.12459-2.22184,0.37405-3.53188c0.11606-0.61329,0.37405-1.64159,0.77325-3.0843
			c0.29927-1.02799,0.42386-1.68286,0.37405-1.96491c-0.03351-0.2321-0.14149-0.3483-0.32425-0.3483
			c-0.64851,0-1.4216,1.33503-2.31958,4.00462c-1.39662,4.12889-2.09494,7.68575-2.09494,10.67044
			c0,4.24509,1.25746,6.36749,3.76833,6.36749c2.09509,0,3.65771-1.58326,4.68896-4.75071
			c0.34908-1.06104,0.52377-1.96492,0.52377-2.71117C138.08331,87.21612,137.55954,86.49485,136.51199,86.49485z"/>
		<g>
			<path d="M305.50888,60.11329c-2.22836,0-4.73877,1.59195-7.53217,4.77569c1.37985-2.55338,2.0701-6.26803,2.0701-11.14317
				c0-0.49739,0.0748-1.69946,0.22433-3.60651c0.01645-0.2985,0-0.46404-0.04977-0.49755c-0.19952,0-0.61115,0.96624-1.23465,2.8978
				c-0.62354,1.93187-1.10172,3.71853-1.43402,5.36012c0,0.0166-0.08347,1.02831-0.24948,3.03449
				c-0.14972,1.7578-0.39902,3.19227-0.74826,4.30296c-0.28284,0.8955-0.7233,1.84064-1.32184,2.83559
				c-0.23303,0.36491-0.95633,1.4593-2.16986,3.28319c-0.29929,0.08316-1.0643,0.12428-2.29462,0.12428
				c-1.86237,0-3.16217-0.48328-3.87692-1.44518c-0.66525-0.8955-0.99759-2.18026-0.99759-3.85536
				c0-0.91179,0.09976-1.8903,0.29929-2.93504c0.53198-2.68619,0.79807-4.46043,0.79807-5.32273
				c0-0.36459-0.0498-0.5472-0.14957-0.5472c-0.24948,0-0.74826,1.07811-1.49652,3.23339
				c-1.66284,4.84209-2.49414,8.46535-2.49414,10.86949c0,1.92381-0.63205,3.3828-1.89554,4.37774
				c-0.31604,0.23241-0.93137,0.27213-1.84561,0.13932c-0.23303-0.03304-0.45755-0.0498-0.67349-0.0498
				c-0.84802,0-1.72089,0.4811-2.61887,1.4427c-1.44656,1.54214-2.66867,2.66137-3.66623,3.35781
				c-2.67737,1.85725-7.51587,3.54865-14.5159,5.07404c-7.19968,1.5589-14.05043,2.33804-20.55148,2.33804
				c-11.68929,0-18.78069-1.58326-21.2748-4.75071c-0.16647-0.21534-0.38275-0.58025-0.64851-1.0944
				c-0.18307-0.38119-0.32425-0.57202-0.42401-0.57202c-0.14955,0-0.32425,0.47257-0.52377,1.41772
				c-0.41579,1.9238-0.62352,3.51559-0.62352,4.77553c0,1.72491,0.38228,3.00967,1.14729,3.85537
				c2.44432,2.7197,8.52991,4.07909,18.25706,4.07909c6.61757,0,13.2187-0.72128,19.80322-2.16382
				c6.46803-1.42594,11.46434-3.21679,14.9897-5.37269c1.42981-0.87859,2.62692-1.85678,3.59146-2.93488
				c0.49878-0.56364,1.19727-1.51733,2.09509-2.86042c1.19708-1.79085,2.44415-2.68635,3.74118-2.68635
				c0.41547,0,0.83127,0.09961,1.24704,0.2985c0.09976,0.0498,0.21597,0.07463,0.34924,0.07463
				c0.54858,0,1.26334-0.45412,2.1449-1.38297c0.931-0.96143,1.48798-1.56696,1.67105-1.81567
				c0.4155-0.597,0.62354-1.25187,0.62354-1.96507c0.76456,2.25536,2.55508,3.38543,5.34848,3.38543
				c0.58179,0,1.18036-0.01629,1.79565-0.0498c-0.49878,1.09439-0.91458,2.27164-1.24704,3.53204
				c-0.0498,0.21534-0.0748,0.36443-0.0748,0.44775c0,0.06593,0.01645,0.09945,0.04996,0.09945
				c0.36554,0,1.0806-1.37661,2.1449-4.12889c3.0759-0.23209,6.19791-1.67898,9.36536-4.34035
				c3.1676-2.66136,5.50781-5.84898,7.02094-9.56363c0.26578-0.64665,0.3992-1.25994,0.3992-1.84065
				C308.05295,60.9427,307.20493,60.11329,305.50888,60.11329z M304.86035,66.28188
				c-2.09506,2.40444-5.62851,4.06279-10.60001,4.97458c0.73154-0.9453,1.4548-1.88191,2.16989-2.81077
				c1.38-1.60808,2.7186-2.72746,4.01563-3.35781c0.6485-0.31479,1.33829-0.47257,2.0701-0.47257
				c0.68155,0,1.27203,0.12862,1.77084,0.38554c0.49878,0.25723,0.74826,0.54332,0.74826,0.85811
				C305.03506,66.00819,304.97656,66.14922,304.86035,66.28188z"/>
			<path d="M249.48009,110.23277c-0.41962-0.11282-0.72552-0.01384-0.93019,0.32249
				c-0.50951,0.8373-1.01698,1.67583-1.52242,2.51559c-0.79587,1.3223-1.58937,2.64603-2.39474,3.98727
				c0.14413,0.01133,0.26065,0.00906,0.37239,0.03105c1.08389,0.21327,2.10681,0.60302,3.05975,1.15199
				c0.46487,0.2678,0.86653,0.22633,1.24025-0.0924c0.4398-0.37507,0.86975-0.76841,1.25868-1.19509
				c0.9402-1.03143,1.68449-2.19882,2.31563-3.44276c0.29056-0.57268,0.1776-0.96899-0.22601-1.38268
				C251.76335,111.2159,250.71707,110.56535,249.48009,110.23277z"/>
		</g>
		<g>
			<path d="M242.83708,63.01296c-0.83174-0.11589-1.62981-0.17423-2.39436-0.17423c-2.27831,0-4.12392,0.49755-5.53699,1.4925
				c-1.77689,1.26118-3.61707,3.81503-5.51712,7.59654c-1.16841-0.34458-2.23193-1.30896-3.09827-2.94543
				c-0.6651-1.25994-0.99759-2.98469-0.99759-5.17348c0-2.85188,0.70654-7.71058,2.12007-14.57561
				c0.21581-1.02784,0.3241-1.74926,0.3241-2.16397c0-0.29835-0.0498-0.4476-0.14955-0.4476
				c-0.28299,0-0.83981,0.92033-1.67108,2.76081c-0.76501,1.72475-1.22208,2.91875-1.3718,3.58169
				c-1.43013,6.53349-2.14488,11.86444-2.14488,15.99333c0,6.73238,1.9809,10.09842,5.77203,10.09842
				c2.67688,0,5.35376-1.13567,8.03094-3.40762c2.42757-2.07259,4.27318-4.5183,5.53699-7.33745
				c0.13297-0.31479,0.51137-0.77496,1.13489-1.38049c0.62354-0.60506,1.09315-1.25606,1.40919-1.95251
				c0.23256-0.51384,0.34908-0.88696,0.34908-1.11937C244.63274,63.46055,244.03418,63.17881,242.83708,63.01296z
				 M240.39276,67.06722c-1.13086,1.69139-2.69363,2.97662-4.68896,3.85521c-1.71265,0.7796-3.50023,1.16902-5.36229,1.16902
				c-0.03165,0-0.06113-0.01505-0.09277-0.01598c1.68565-3.04101,3.1178-4.84938,4.29535-5.41876
				c1.35504-0.65472,2.68123-0.98238,3.97809-0.98238c0.48204,0,0.96423,0.04158,1.44658,0.12427
				c0.78146,0.14925,1.17227,0.24886,1.17227,0.2985C241.14102,66.0144,240.89156,66.33772,240.39276,67.06722z"/>
			<path d="M233.18687,32.33077c1.14731,0.6634,1.72095,1.59195,1.72095,2.78579c0,1.5589-0.57791,3.03061-1.73343,4.41497
				c-1.15584,1.38467-2.69791,2.48341-4.6266,3.2956c-2.31128,0.69645-4.62263,1.38467-6.93361,2.06452
				c-3.39201,1.1608-5.77,2.70295-7.13319,4.62628c-2.22836,3.1507-3.66632,8.40702-4.31483,15.76945
				c-0.33278,6.26803-0.6734,12.53591-1.02257,18.80394c-0.19951,2.45394-0.40764,3.68114-0.62352,3.68114
				c-0.31604,0-0.47389-3.22532-0.47389-9.67549c0-7.94299,0.50702-14.36026,1.52144-19.25169
				c0.79807-3.94628,2.0701-7.41208,3.81595-10.39692c2.54401-4.34407,6.36003-7.80149,11.44803-10.37194
				c2.06158-4.44368,3.45827-6.66598,4.19009-6.66598C230.7341,31.41044,232.12257,31.71748,233.18687,32.33077L233.18687,32.33077z
				"/>
			<path d="M231.40721,110.23277c-0.41962-0.11282-0.72552-0.01384-0.93019,0.32249
				c-0.50951,0.8373-1.01698,1.67583-1.52242,2.51559c-0.79585,1.3223-1.58936,2.64603-2.39474,3.98727
				c0.14413,0.01133,0.26065,0.00906,0.37241,0.03105c1.08388,0.21327,2.1068,0.60302,3.05974,1.15199
				c0.46487,0.2678,0.86653,0.22633,1.24026-0.0924c0.43979-0.37507,0.86974-0.76841,1.25868-1.19509
				c0.94019-1.03143,1.68448-2.19882,2.31561-3.44276c0.29056-0.57268,0.1776-0.96899-0.22601-1.38268
				C233.69048,111.2159,232.6442,110.56535,231.40721,110.23277z"/>
		</g>
		<g>
			<path d="M203.60559,60.71292c-2.97662-1.32649-5.45398-1.98989-7.43256-1.98989c-2.56067,0-4.63899,1.01977-6.23529,3.05931
				c-1.2303,1.57566-1.84561,2.471-1.84561,2.68634c0,0.03336,0.02498,0.05833,0.07478,0.07462
				c0.19951,0,1.16374-0.73756,2.89316-2.21362c0.48218-0.41439,1.08896-0.62182,1.82079-0.62182
				c1.16359,0,3.22563,0.76285,6.18533,2.28824c-5.73634,2.18879-9.90108,5.27309-12.4782,9.25272
				c-1.57985,2.40459-2.73537,4.42738-3.46672,6.06898c-2.57759,1.22736-4.58115,2.39638-6.01096,3.50706
				c-2.59389,1.98989-4.86351,4.62643-6.80887,7.90962c-1.76262,2.9847-3.05963,6.44211-3.8909,10.37195
				c-1.0311,4.90818-1.54634,11.33353-1.54634,19.27651c0,2.75243,0.09123,5.4636,0.27446,8.1335
				c0.18275,2.66959,0.36552,4.00462,0.5486,4.00462c0.09975,0,0.19098-0.47258,0.27444-1.41788
				c0.31557-6.88164,0.63982-13.76327,0.97261-20.64444c0.66495-9.20307,2.1033-15.3715,4.31491-18.50544
				c2.14488-3.05093,5.77777-5.37254,10.89928-6.96448c2.36084-0.597,4.73022-1.18532,7.10829-1.76602
				c1.79565-0.71274,3.25868-2.47861,4.38954-5.29791c0.21596-0.53044,0.32425-1.00301,0.32425-1.41772
				c0-0.8457-0.47382-1.52539-1.4216-2.03954c-0.71506-0.39795-1.95406-0.80412-3.7162-1.21882h-0.49118
				c1.41306-1.79085,3.64948-3.29948,6.70911-4.52684c3.35843-1.35954,5.74039-2.72358,7.14569-4.09165
				c1.40485-1.36792,2.1075-2.37527,2.1075-3.02208C204.30391,61.22708,204.07088,60.92858,203.60559,60.71292z"/>
			<path d="M194.78635,110.23277c-0.41962-0.11282-0.72552-0.01384-0.93019,0.32249
				c-0.50951,0.8373-1.01698,1.67583-1.52242,2.51559c-0.79585,1.3223-1.58936,2.64603-2.39474,3.98727
				c0.14415,0.01133,0.26067,0.00906,0.37241,0.03105c1.08388,0.21327,2.1068,0.60302,3.05974,1.15199
				c0.46487,0.2678,0.86653,0.22633,1.24026-0.0924c0.43979-0.37507,0.86974-0.76841,1.25868-1.19509
				c0.94019-1.03143,1.68448-2.19882,2.31561-3.44276c0.29056-0.57268,0.1776-0.96899-0.22601-1.38268
				C197.06961,111.2159,196.02333,110.56535,194.78635,110.23277z"/>
		</g>
		<g>
			<path d="M166.83937,66.73164c0.03313,0.16585,0.00815,0.47257-0.07486,0.92032c-0.19951,1.2272-0.46567,4.02122-0.79807,8.38205
				c-0.28299,3.69804-0.65704,6.41728-1.12239,8.15833c-1.29695,4.80904-2.95979,8.2497-4.98825,10.32229
				c-0.24939,0.26546-0.78992,0.53913-1.62119,0.82088c-0.88145,0.31479-1.64609,0.47257-2.29453,0.47257
				c-0.84802,0-1.27203-0.04158-1.27203-0.12443c0-0.16585,0.88928-0.94514,2.66873-2.33804
				c3.2088-2.50358,5.07124-5.22328,5.58679-8.15833c0.21588-1.24364,0.38228-3.06754,0.49887-5.47198
				c0.11612-2.63654,0.20766-4.23656,0.27429-4.80051c0.13289-1.02799,0.57365-2.57821,1.32191-4.65126
				c0.73143-2.00619,1.27196-3.20003,1.6212-3.58169C166.75598,66.5661,166.82262,66.58239,166.83937,66.73164L166.83937,66.73164z"
				/>
			<path d="M156.18491,79.6264c0,0.2653-0.08339,0.67147-0.24939,1.21867c-1.5963,5.45569-3.36713,9.39391-5.31248,11.81464
				c-2.11185,2.63654-4.09895,4.02944-5.96092,4.17869c-1.28065,0.09945-1.92055-0.33186-1.92055-1.29344
				c0-0.5638,0.29935-1.11922,0.8979-1.66642c0.48212-0.44775,1.38817-1.06104,2.71861-1.84064
				c1.42982-0.8457,2.56889-1.61678,3.41692-2.31322c1.18044-0.97819,2.23611-2.35433,3.16754-4.12888
				c0.34915-0.66293,1.02255-2.18879,2.02022-4.57664c0.46536-1.12744,0.82304-1.69124,1.07253-1.69124
				C156.13504,79.3279,156.18491,79.42735,156.18491,79.6264L156.18491,79.6264z"/>
			<path d="M155.31075,59.73666c-0.41962-0.11281-0.72552-0.01384-0.93019,0.32249c-0.50951,0.8373-1.01698,1.67583-1.52242,2.5156
				c-0.79587,1.3223-1.58937,2.64602-2.39474,3.98726c0.14413,0.01133,0.26065,0.00906,0.37239,0.03105
				c1.08389,0.21327,2.10681,0.60302,3.05975,1.15199c0.46487,0.26781,0.86653,0.22633,1.24025-0.0924
				c0.4398-0.37507,0.86975-0.7684,1.25868-1.19508c0.9402-1.03143,1.68449-2.19883,2.31563-3.44277
				c0.29056-0.57268,0.1776-0.96899-0.22601-1.38268C157.59401,60.7198,156.54773,60.06924,155.31075,59.73666z"/>
		</g>
		<g>
			<path d="M146.2438,29.11336c-0.04979,0-0.88153,0.73803-2.49411,2.21377c-2.19484,1.97345-4.76375,3.92177-7.70685,5.84511
				c-7.41612,4.69284-14.83176,9.37715-22.24756,14.05323c-8.04771,5.28968-13.0859,9.45161-15.11427,12.48626
				c-0.51555,0.77961-0.77325,1.28522-0.77325,1.51717c0,0.09944,0.04996,0.14925,0.14972,0.14925
				c0.39903,0,2.01161-1.13567,4.83852-3.40762c2.72684-2.18879,8.75439-6.11878,18.08236-11.78981
				c9.7602-5.95278,15.688-9.71288,17.78309-11.27985c2.09508-1.56697,3.94069-3.36169,5.53699-5.38494
				c1.41306-1.82389,2.1199-3.10912,2.1199-3.85536C146.41835,29.29612,146.36002,29.11336,146.2438,29.11336z"/>
			<path d="M123.24582,69.74596c-0.19952-0.46404-0.33294-0.69645-0.39919-0.69645c-0.08331,0-0.24932,0.17407-0.49879,0.52238
				c-1.04755,1.49234-1.85414,2.84397-2.41918,4.05426c-1.43029,0.2487-2.96809,1.45123-4.61418,3.60651
				c-2.09509,2.7695-3.26736,4.27844-3.51669,4.47749c-0.5323,0.39795-1.34682,0.52238-2.44432,0.37312
				c-0.14956-0.01629-0.29927-0.02482-0.44883-0.02482c-0.68202,0-1.72103,0.55573-3.11765,1.66641
				c-1.39677,1.11115-2.97289,1.66875-4.702,1.66875c-1.86237,0-3.15115-0.4808-3.86591-1.4427
				c-0.81482-1.07764-1.22208-2.83544-1.22208-5.27309c0-1.60808,0.17454-3.27466,0.52377-4.9994
				c0.532-2.68635,0.79807-4.46043,0.79807-5.32289c0-0.36443-0.0498-0.5472-0.14956-0.5472
				c-0.24947,0-0.74439,1.0657-1.48397,3.19615c-0.74004,2.13092-1.35938,4.82968-1.85818,8.09627
				c-0.43254,2.75275-0.64851,4.85016-0.64851,6.29285c0,1.7578-0.63206,3.13394-1.89542,4.12889
				c-0.61546,0.4811-2.00401,1.1608-4.16518,2.03954c-1.58,0.64664-2.69364,1.5755-3.34215,2.78579
				c-1.01434,1.90705-1.91232,3.71481-2.69363,4.41125c-1.0311,0.89534-2.83513,1.80759-5.41225,2.73598
				c-0.81482,0.2985-1.56309,0.77961-2.24464,1.4427c-0.73197,0.69644-1.0975,1.33487-1.0975,1.91512
				c0,0.2487,0.083,0.47257,0.24947,0.67162c0.28252,0.34814,0.87285,0.52238,1.77083,0.52238
				c1.46287,0,2.85142-0.38166,4.16519-1.1442c1.7789-1.02799,3.53297-3.22547,5.26254-6.57522
				c0.6316-1.1442,1.78712-2.01472,3.46673-2.61172c1.94552-0.6797,3.29234-1.40919,4.0406-2.1888
				c1.52958-1.59179,2.29445-3.10912,2.29445-4.55166c0.76471,2.2552,2.54408,3.38264,5.33747,3.38264
				c1.47962,0,3.48798-1.46969,5.99886-4.40473c0.76456-0.89535,1.47977-1.34309,2.14504-1.34309
				c0.19952,0,0.4403,0.04592,0.72329,0.13683c0.28252,0.09138,0.50686,0.13684,0.67333,0.13684
				c0.83127,0,1.94537-0.72949,3.34214-2.18895c0.83127-0.99494,1.67914-2.01068,2.54392-2.99741
				c0.86447-0.98642,1.71234-1.63741,2.54408-1.95251c0.66479-0.24886,1.30508-0.37312,1.92039-0.37312
				c0.36552,0,0.8021,0.05399,1.30943,0.16166c0.50701,0.10798,0.83561,0.16166,0.98517,0.16166
				c0.38228,0,0.71476-0.14925,0.99774-0.44775c1.52958-1.60809,2.2946-3.28319,2.2946-5.02423
				C124.39312,72.9297,124.01038,71.43736,123.24582,69.74596z"/>
			<path d="M75.10156,89.98221c0,0.46435-0.02498,0.9619-0.07486,1.49235c-0.13327,1.24364-0.56543,2.76081-1.29694,4.55165
				c-0.79807,1.94009-1.69598,3.5488-2.69363,4.82549c-1.46333,1.89029-3.20104,3.17506-5.21274,3.85521
				c-0.6153,0.19905-1.1141,0.2985-1.49645,0.2985c-0.54867,0-0.82305-0.1826-0.82305-0.5472
				c0-0.4974,0.40726-1.10262,1.22216-1.81567c1.28018-1.06104,2.56036-2.12239,3.84093-3.18375
				c1.61259-1.34325,2.56037-2.26341,2.84328-2.76096c0.13288-0.2487,0.19952-0.55542,0.19952-0.92033
				c0-0.81219-0.28291-1.67464-0.84802-2.58674c-0.64843-1.02799-1.51321-1.84064-2.59388-2.43749
				c2.16133-4.67624,3.37527-6.94772,3.64142-6.81523C74.00414,85.1156,75.10156,87.13033,75.10156,89.98221L75.10156,89.98221z"/>
			<path d="M109.28196,109.51366c-0.18538-0.04861-0.50122-0.01267-0.60497,0.11122
				c-0.46632,0.55694-0.87345,1.16303-1.31032,1.7451c-0.51028,0.67989-1.02927,1.35326-1.55296,2.04059
				c-0.17557-0.19884-0.30666-0.40162-0.48656-0.5418c-0.85952-0.66979-1.82583-1.12686-2.90295-1.30269
				c-0.30184-0.04926-0.63467-0.12493-0.89024,0.26063c-1.00734,1.51975-2.05534,3.01253-3.08652,4.51651
				c-0.30328,0.44231-0.60081,0.88856-0.9316,1.37836c0.21958,0.03826,0.37502,0.06277,0.52943,0.09267
				c0.96374,0.18661,1.83652,0.59393,2.67808,1.08562c0.18361,0.10728,0.40293,0.19768,0.61111,0.21065
				c0.72082,0.04491,1.14736-0.49339,1.54913-0.94315c0.65876-0.73743,1.22175-1.56042,1.88208-2.42164
				c0.83295,0.40625,1.7249,0.81065,2.58453,1.27488c0.3688,0.19917,0.68622,0.29531,1.03938,0.03949
				c0.2533-0.18349,0.52154-0.3578,0.73615-0.58129c0.94227-0.98125,1.79221-2.03874,2.48807-3.21053
				c0.27297-0.45967,0.55278-0.95914,0.2826-1.50555C111.34653,110.65069,110.51171,109.83616,109.28196,109.51366z"/>
		</g>
	</g>
	<g>
		<g>
			<path d="M148.07858,133.98813c-0.05092,0-0.90109,0.75439-2.54944,2.26286c-2.2435,2.01721-4.86937,4.00873-7.87775,5.97472
				c-7.58057,4.79691-15.16064,9.58508-22.74089,14.36487c-8.22617,5.40698-13.37608,9.66121-15.44943,12.76314
				c-0.52699,0.79691-0.7904,1.31374-0.7904,1.55081c0,0.10165,0.05107,0.15257,0.15304,0.15257
				c0.40788,0,2.05622-1.16086,4.94582-3.48318c2.78731-2.23734,8.94852-6.25447,18.48334-12.05125
				c9.97664-6.08478,16.03589-9.92827,18.17743-11.52998s4.02808-3.43625,5.65977-5.50436
				c1.4444-1.86433,2.16692-3.17805,2.16692-3.94086C148.25699,134.17494,148.19736,133.98813,148.07858,133.98813z"/>
			<path d="M124.5706,175.52176c-0.20394-0.47433-0.34032-0.7119-0.40804-0.7119c-0.08516,0-0.25484,0.17793-0.50985,0.53397
				c-1.07077,1.52544-1.89526,2.90704-2.47283,4.14417c-1.462,0.25421-3.03391,1.48341-4.7165,3.68649
				c-2.14154,2.8309-3.33982,4.37332-3.59467,4.57678c-0.54411,0.40677-1.37669,0.53395-2.49852,0.38139
				c-0.15288-0.01665-0.30592-0.02538-0.45879-0.02538c-0.69714,0-1.75919,0.56805-3.18678,1.70337
				c-1.42775,1.1358-3.03883,1.70575-4.80627,1.70575c-1.90366,0-3.22104-0.49146-3.95164-1.47469
				c-0.83289-1.10153-1.24918-2.89832-1.24918-5.39001c0-1.64374,0.17841-3.34727,0.53539-5.11028
				c0.54379-2.74591,0.81577-4.55934,0.81577-5.44092c0-0.37251-0.0509-0.55933-0.15288-0.55933
				c-0.255,0-0.76089,1.08932-1.51687,3.26703c-0.75645,2.17818-1.38953,4.93677-1.89938,8.2758
				c-0.44214,2.81378-0.66289,4.9577-0.66289,6.43239c0,1.79678-0.64608,3.20345-1.93745,4.22046
				c-0.62911,0.49178-2.04845,1.18654-4.25755,2.08476c-1.61504,0.66098-2.75337,1.61044-3.41626,2.84756
				c-1.03683,1.94934-1.95473,3.79718-2.75336,4.50908c-1.05396,0.91519-2.898,1.84769-5.53227,2.79666
				c-0.83289,0.30511-1.59775,0.79689-2.29442,1.47469c-0.74821,0.7119-1.12183,1.36447-1.12183,1.95758
				c0,0.25421,0.08485,0.48306,0.255,0.68652c0.28879,0.35587,0.8922,0.53395,1.8101,0.53395
				c1.49531,0,2.91465-0.39012,4.25756-1.16957c1.81834-1.05078,3.61131-3.297,5.37923-6.72102
				c0.64561-1.16957,1.82675-2.05939,3.5436-2.66963c1.98867-0.69476,3.36535-1.44043,4.13021-2.23734
				c1.5635-1.62709,2.34533-3.17805,2.34533-4.65259c0.78167,2.30521,2.60049,3.45766,5.45583,3.45766
				c1.51244,0,3.56532-1.50229,6.13188-4.50241c0.78151-0.91521,1.51259-1.37288,2.1926-1.37288
				c0.20394,0,0.45007,0.04694,0.73933,0.13986c0.28879,0.09341,0.5181,0.13988,0.68826,0.13988
				c0.84971,0,1.98851-0.74567,3.41626-2.23749c0.8497-1.01701,1.71638-2.05527,2.60033-3.06387
				c0.88364-1.0083,1.75031-1.67372,2.60049-1.9958c0.67954-0.25438,1.33402-0.38141,1.96297-0.38141
				c0.37363,0,0.81989,0.05519,1.33847,0.16525c0.51826,0.11038,0.85414,0.16525,1.00702,0.16525
				c0.39075,0,0.73061-0.15257,1.01987-0.45769c1.56349-1.64374,2.34548-3.35599,2.34548-5.13564
				C125.74335,178.77609,125.35211,177.25066,124.5706,175.52176z"/>
			<path d="M75.35874,196.20674c0,0.47466-0.02554,0.98323-0.07652,1.52544c-0.13623,1.27122-0.57797,2.82204-1.3257,4.6526
				c-0.81577,1.98311-1.73358,3.62749-2.75337,4.9325c-1.49578,1.93221-3.27202,3.24545-5.32832,3.94069
				c-0.62895,0.20348-1.1388,0.30513-1.52964,0.30513c-0.56084,0-0.8413-0.18666-0.8413-0.55934
				c0-0.50842,0.41629-1.12706,1.24926-1.85593c1.30857-1.08456,2.61714-2.16945,3.92611-3.25433
				c1.64835-1.37305,2.61715-2.31361,2.90633-2.8222c0.13583-0.25421,0.20394-0.56773,0.20394-0.94073
				c0-0.83018-0.28918-1.71176-0.86683-2.64409c-0.66281-1.0508-1.54677-1.88147-2.6514-2.49155
				c2.20926-4.77994,3.45011-7.10179,3.72217-6.96635C74.23698,191.23222,75.35874,193.29163,75.35874,196.20674L75.35874,196.20674
				z"/>
			<path d="M110.2971,216.17131c-0.18949-0.04968-0.51234-0.01295-0.61839,0.11369c-0.47665,0.56929-0.89282,1.18881-1.33937,1.7838
				c-0.5216,0.69496-1.05209,1.38326-1.5874,2.08583c-0.17946-0.20323-0.31347-0.41051-0.49735-0.5538
				c-0.87859-0.68465-1.86632-1.15186-2.96733-1.33157c-0.30853-0.05037-0.64874-0.12772-0.90997,0.26639
				c-1.02968,1.55347-2.10092,3.07935-3.15496,4.61667c-0.31,0.45212-0.61414,0.90826-0.95226,1.40892
				c0.22445,0.03912,0.38334,0.06418,0.54117,0.09474c0.98511,0.19075,1.87724,0.60709,2.73746,1.10968
				c0.18769,0.10966,0.41187,0.20207,0.62466,0.21533c0.73681,0.0459,1.17281-0.50435,1.5835-0.96407
				c0.67337-0.75378,1.24883-1.59503,1.92381-2.47534c0.85141,0.41527,1.76315,0.82863,2.64185,1.30315
				c0.37698,0.2036,0.70144,0.30186,1.06242,0.04037c0.25893-0.18756,0.5331-0.36574,0.75248-0.59418
				c0.96317-1.00302,1.83195-2.08395,2.54325-3.28172c0.27902-0.46986,0.56503-0.98042,0.28886-1.53894
				C112.40745,217.33354,111.55412,216.50096,110.2971,216.17131z"/>
		</g>
		<g>
			<path d="M374.45972,173.16866c0.79874,0.66098,1.22375,1.54256,1.27472,2.6441c1.15561-1.33879,2.88089-3.18631,5.17538-5.54242
				c-2.44745-1.08456-4.31735-1.62726-5.6088-1.62726c-0.81577,0-1.5722,0.16129-2.26895,0.48306
				c-0.69708,0.32225-2.09058,1.71225-4.18106,4.16969c-0.25491,0.30496-0.46765,0.45752-0.63736,0.45752
				c-0.10196,0-0.15295-0.0674-0.15295-0.20331c0-0.20346,0.12744-0.50858,0.38235-0.91536
				c2.27737-3.6102,4.3934-5.85594,6.34811-6.73752c0.81586-0.35587,1.66547-0.5338,2.54944-0.5338
				c0.86682,0,2.03076,0.23312,3.49268,0.6992c1.46155,0.46625,2.48975,0.69905,3.08484,0.69905
				c0.40787,0,0.90067-0.12274,1.47864-0.36856c0.57767-0.24548,1.0282-0.3687,1.35123-0.3687
				c0.57758,0,0.86685,0.24596,0.86685,0.73726c0,0.40677-0.2084,0.93248-0.62469,1.57634
				c-0.41669,0.64433-0.99026,1.25458-1.72079,1.83057c-0.6629,0.49176-1.3345,0.99162-2.01404,1.50006
				c-0.81586,0.64433-2.33716,2.21194-4.56348,4.70349c-2.68573,3.00012-4.19824,4.67813-4.53802,5.03415
				c-1.00305,2.30521-2.33707,4.42375-4.00262,6.35612c-2.17572,2.50867-4.22369,3.76277-6.14407,3.76277
				c-0.88397,0-1.46194-0.23756-1.73358-0.7119c-0.10199-0.18634-0.15295-0.38139-0.15295-0.5847
				c0-0.62689,0.47559-1.22873,1.42764-1.80519c1.30859-0.69476,2.62589-1.38129,3.95157-2.05939
				c1.73367-0.98276,3.05936-2.08478,3.97711-3.30525c0.4928-0.66098,0.41629-0.99149-0.2294-0.99149
				c-2.71951,0-4.07916-0.83907-4.07916-2.51707c0-0.42342,0.11038-0.85556,0.33145-1.29659
				c1.35956-2.67789,2.2858-4.33051,2.7789-4.95772c0.27167-0.35602,0.73053-0.64401,1.37668-0.86446
				c0.16971-0.0509,0.36533-0.07628,0.5864-0.07628C373.04047,172.3551,373.77979,172.62645,374.45972,173.16866
				L374.45972,173.16866z"/>
			<path d="M362.25067,176.256c0,0.47466-0.02551,0.98325-0.07651,1.52544c-0.13623,1.27122-0.57797,2.82204-1.32568,4.6526
				c-0.81577,1.98311-1.73358,3.62749-2.75339,4.9325c-1.49579,1.93221-3.272,3.24545-5.32831,3.94069
				c-0.62897,0.20348-1.13882,0.30513-1.52966,0.30513c-0.56082,0-0.84128-0.18666-0.84128-0.55934
				c0-0.50842,0.41629-1.12706,1.24924-1.85593c1.30859-1.08456,2.61716-2.16945,3.92612-3.25433
				c1.64835-1.37305,2.61716-2.31361,2.90634-2.8222c0.1358-0.25421,0.20392-0.56773,0.20392-0.94072
				c0-0.8302-0.28918-1.71178-0.86682-2.6441c-0.66281-1.0508-1.54675-1.88147-2.6514-2.49155
				c2.20926-4.77994,3.4501-7.10179,3.72217-6.96635C361.12894,171.28148,362.25067,173.34088,362.25067,176.256L362.25067,176.256z
				"/>
			<path d="M378.31085,144.86201c-0.42892-0.11531-0.74164-0.01413-0.95084,0.32965c-0.52081,0.85587-1.03955,1.713-1.55618,2.57138
				c-0.81351,1.35162-1.6246,2.7047-2.44785,4.07568c0.14734,0.01158,0.26645,0.00926,0.38068,0.03174
				c1.10791,0.218,2.1535,0.61639,3.12759,1.17754c0.47519,0.27374,0.88574,0.23135,1.26776-0.09444
				c0.44955-0.38339,0.88901-0.78545,1.28659-1.2216c0.96103-1.05429,1.72183-2.24757,2.36694-3.5191
				c0.29703-0.58537,0.18155-0.99048-0.23102-1.41335C380.64471,145.86696,379.57526,145.20198,378.31085,144.86201z"/>
		</g>
		<g>
			<path d="M249.19626,174.73056c0,0.27119-0.08524,0.68637-0.25493,1.2457c-1.63168,5.57668-3.44179,9.60222-5.4303,12.07663
				c-2.15868,2.69501-4.18983,4.11879-6.09311,4.27135c-1.30904,0.10165-1.96313-0.33922-1.96313-1.32213
				c0-0.57629,0.306-1.14404,0.91782-1.70337c0.49281-0.45767,1.41895-1.08456,2.7789-1.88145
				c1.46153-0.86446,2.62587-1.65263,3.49269-2.36452c1.2066-0.99989,2.28571-2.40654,3.23778-4.22044
				c0.35689-0.67764,1.04524-2.23734,2.06502-4.67813c0.47568-1.15244,0.84131-1.72874,1.09631-1.72874
				C249.14528,174.42545,249.19626,174.5271,249.19626,174.73056L249.19626,174.73056z"/>
			<path d="M248.39648,157.85345c-0.42891-0.11531-0.74161-0.01414-0.95081,0.32965c-0.52081,0.85585-1.03955,1.713-1.55618,2.57138
				c-0.81351,1.35162-1.6246,2.7047-2.44785,4.07568c0.14734,0.01158,0.26643,0.00926,0.38066,0.03174
				c1.10791,0.218,2.15352,0.61639,3.12759,1.17754c0.47519,0.27374,0.88574,0.23134,1.26776-0.09445
				c0.44954-0.38339,0.88902-0.78545,1.28659-1.22159c0.96103-1.05429,1.72183-2.24759,2.36696-3.5191
				c0.29701-0.58539,0.18155-0.99048-0.23102-1.41335C250.73038,158.8584,249.6609,158.19341,248.39648,157.85345z"/>
		</g>
		<g>
			<path d="M151.31302,195.07538c-1.00305-0.35602-1.50418-0.90663-1.50418-1.65262c0-0.28799,0.0766-0.6778,0.22948-1.16957
				c0.74773-1.55922,1.39667-2.8114,1.94077-3.72676c0.40788-0.72855,0.61183-1.83057,0.61183-3.30508
				c0-0.55934-0.08533-0.83908-0.255-0.83908c-0.11909,0-0.27197,0.13591-0.45879,0.40677
				c-1.6317,2.98347-2.92622,5.48105-3.87839,7.46416c-0.47591,0.88158-0.85001,1.89859-1.12167,3.05104
				c-0.90108,0.76263-1.58063,1.40347-2.03957,1.96281c-0.54411,0.40677-1.37669,0.53395-2.49837,0.38139
				c-0.15303-0.01665-0.30591-0.02538-0.45894-0.02538c-0.69714,0-1.75903,0.56805-3.18678,1.70337
				c-1.4276,1.1358-3.02534,1.70338-4.79295,1.70338c-1.90366,0-3.18202-0.4913-3.91263-1.47453
				c-0.68001-0.89824-1.0197-2.15233-1.0197-3.76292c0-1.67801,0.45879-4.11864,1.37668-7.32224
				c0.15288-0.52507,0.22948-0.94897,0.22948-1.27122c0-0.38965-0.10197-0.5847-0.30591-0.5847
				c-0.64624,0-1.35132,1.10201-2.11618,3.30525c-1.61488,4.67796-2.42191,8.46626-2.42191,11.36473
				c0,4.57631,1.95805,6.86455,5.9522,6.86455c1.51259,0,3.55215-1.50006,6.11871-4.5002
				c0.78151-0.91519,1.51244-1.37286,2.19244-1.37286c0.20395,0,0.45007,0.04694,0.73933,0.13986
				c0.28879,0.09341,0.51826,0.13988,0.68842,0.13988c0.84955,0,1.98851-0.74567,3.41611-2.23749
				c0.18681-0.18634,0.37363-0.29306,0.56091-0.3611c0.79865-0.28799,1.66547-0.27959,2.60033,0.02553
				c0.83258,0.27118,1.30865,0.40677,1.42775,0.40677c0.27167,0,0.5947-0.20346,0.96881-0.61023
				c1.17274-1.27122,1.75903-2.37276,1.75903-3.30525C152.15433,195.74509,151.87395,195.27869,151.31302,195.07538z"/>
			<path d="M138.06277,180.03148c-0.42892-0.11531-0.74162-0.01413-0.95082,0.32965c-0.52081,0.85587-1.03954,1.713-1.55618,2.57138
				c-0.81351,1.35162-1.6246,2.7047-2.44785,4.07568c0.14734,0.01158,0.26643,0.00926,0.38066,0.03174
				c1.10791,0.218,2.15352,0.61639,3.12759,1.17754c0.47519,0.27374,0.88574,0.23135,1.26776-0.09444
				c0.44955-0.38339,0.88902-0.78545,1.28659-1.2216c0.96104-1.05429,1.72183-2.24757,2.36697-3.5191
				c0.297-0.58537,0.18153-0.99048-0.23102-1.41335C140.39667,181.03642,139.32719,180.37144,138.06277,180.03148z"/>
			<path d="M155.1875,166.93166c-0.1895-0.0497-0.51234-0.01295-0.61838,0.11368c-0.47665,0.56929-0.89282,1.18883-1.33939,1.78381
				c-0.52159,0.69496-1.05208,1.38326-1.58739,2.08583c-0.17946-0.20325-0.31348-0.41052-0.49736-0.55382
				c-0.87859-0.68465-1.86632-1.15184-2.96733-1.33157c-0.30853-0.05035-0.64874-0.1277-0.90997,0.2664
				c-1.02968,1.55345-2.10092,3.07933-3.15495,4.61667c-0.31001,0.45212-0.61415,0.90826-0.95227,1.40892
				c0.22446,0.03911,0.38335,0.06418,0.54117,0.09473c0.98511,0.19077,1.87724,0.6071,2.73746,1.1097
				c0.18768,0.10965,0.41187,0.20206,0.62466,0.21532c0.73682,0.04591,1.17281-0.50433,1.5835-0.96405
				c0.67337-0.7538,1.24884-1.59503,1.92381-2.47534c0.85141,0.41525,1.76315,0.82861,2.64185,1.30315
				c0.37698,0.20358,0.70143,0.30185,1.06242,0.04036c0.25893-0.18756,0.53311-0.36572,0.75249-0.59418
				c0.96317-1.00302,1.83195-2.08395,2.54324-3.28172c0.27902-0.46986,0.56503-0.98041,0.28886-1.53893
				C157.29785,168.09389,156.44452,167.26131,155.1875,166.93166z"/>
		</g>
		<g>
			<path d="M438.70325,186.91884c0.6629,0,1.31689,0.36475,1.96298,1.09329c0.71396,0.81354,1.07077,2.16977,1.07077,4.06789
				c0,3.11891-0.84131,6.14441-2.5239,9.07666c-1.95471,3.42387-4.52127,5.54242-7.69919,6.35612
				c-0.37408,0.10165-0.70554,0.15239-0.99432,0.15239c-0.78198,0-1.17273-0.33049-1.17273-0.99147
				c0-0.89822,0.45004-1.61836,1.35114-2.16106c5.03082-3.06767,7.5463-5.36464,7.5463-6.89008
				c0-0.20346-0.08514-0.35587-0.25482-0.45767c-0.18729-0.10165-0.39124-0.07628-0.612,0.07628
				c-0.22107,0.15256-0.5441,0.22884-0.96878,0.22884c-1.18973,0-2.06497-0.40677-2.62589-1.22032
				c-0.0509-0.08469-0.07645-0.21172-0.07645-0.38139c0-1.33879,0.96008-3.77957,2.88089-7.32224
				C437.18195,187.46152,437.88748,186.91884,438.70325,186.91884L438.70325,186.91884z"/>
			<path d="M430.35117,177.17041c0.03378,0.16953,0.00842,0.48305-0.07645,0.94073
				c-0.20392,1.25441-0.47607,4.11038-0.81592,8.56792c-0.28909,3.78004-0.6716,6.55959-1.14719,8.33923
				c-1.32562,4.91568-3.02551,8.43265-5.09888,10.55119c-0.255,0.27133-0.80734,0.55109-1.65704,0.83908
				c-0.90109,0.32176-1.68262,0.48305-2.34549,0.48305c-0.86682,0-1.30026-0.0425-1.30026-0.12718
				c0-0.16953,0.90903-0.96611,2.72784-2.38989c3.28003-2.5591,5.18369-5.33911,5.71085-8.33923
				c0.22058-1.27122,0.39075-3.13556,0.50986-5.59332c0.11862-2.69501,0.21234-4.33051,0.28036-4.90697
				c0.13593-1.0508,0.58646-2.63538,1.35117-4.75441c0.74771-2.05067,1.30023-3.27098,1.6572-3.6611
				C430.26584,177.00119,430.33405,177.01785,430.35117,177.17041L430.35117,177.17041z"/>
			<path d="M441.03638,154.66835c-0.08533,0-0.47607,0.27959-1.17276,0.83891c-1.61487,1.28835-4.26627,2.76288-7.95419,4.42392
				c-6.16962,2.76288-9.67117,4.35634-10.5036,4.77977c-3.58643,1.79678-6.48599,4.40678-8.84814,8.0679
				c-0.54395,0.84779-0.81577,1.56793-0.81577,2.16104c0,0.28847,0.08499,0.50018,0.255,0.63562
				c0.37363,0.30511,1.76761,0.45767,4.18097,0.45767c2.09048,0,3.62018-0.06755,4.58914-0.20346
				c-6.306,6.06813-14.60828,11.17015-24.90796,15.30559c-10.53787,4.22044-20.49738,6.33075-29.87933,6.33075
				c-4.33398,0-8.03061-0.29639-11.0899-0.88982c-2.22668-0.44055-4.37665-1.1442-6.44998-2.11031
				c-1.78458-0.8302-2.86407-1.24585-3.2377-1.24585c-1.03699,0-2.82996,1.31372-5.37939,3.94086
				c-2.68564,2.74591-5.14975,5.89844-7.39328,9.4579c-0.67999,1.08456-1.01987,1.7289-1.01987,1.93221
				c0,0.03378,0.00888,0.0509,0.02554,0.0509c0.15305,0,0.70508-0.57645,1.65723-1.7289
				c1.98849-2.40654,4.2233-4.72887,6.70502-6.9662c0.42453-0.37268,0.78149-0.55949,1.07062-0.55949
				c0.1868,0,0.53537,0.18681,1.04538,0.55949c3.19504,2.38989,7.52078,3.99161,12.97644,4.80516
				c2.7023,0.42342,5.345,0.6356,7.92868,0.6356c7.81796,0,15.58533-1.27122,23.30179-3.81367
				c6.93433-2.2711,13.35025-5.39825,19.24805-9.38162c4.13022-2.77969,7.61401-5.46629,10.45273-8.05965
				c1.59726-1.47453,3.33093-3.271,5.20065-5.38986c1.41077-1.61012,2.48981-2.6525,3.23801-3.1273
				c0.37363-0.23709,0.73489-0.63959,1.08347-1.20764c0.34824-0.56773,0.52267-1.05507,0.52267-1.46184
				c0-0.47433-0.26389-0.7119-0.79037-0.7119c-0.17001,0-0.37396,0.02538-0.61182,0.07628
				c-1.00323,0.23756-2.63477,0.4155-4.89493,0.53381c-2.1926,0.10181-3.76483,0.0934-4.71634-0.02538h0.11737
				c0.74771-1.69466,4.65131-3.94911,12.09564-7.00014c4.36792-1.79631,7.48651-3.28796,9.35641-4.47467
				c2.1926-1.40665,3.57755-2.91512,4.15558-4.52556c0.37363-1.03366,0.56091-1.67799,0.56091-1.93221
				C441.13834,154.74463,441.1041,154.68532,441.03638,154.66835z"/>
			<path d="M427.67828,139.66545c-0.42892-0.11533-0.74161-0.01414-0.95081,0.32964c-0.52081,0.85587-1.03955,1.713-1.55618,2.5714
				c-0.81351,1.35162-1.6246,2.7047-2.44785,4.07567c0.14734,0.01158,0.26645,0.00926,0.38065,0.03174
				c1.10794,0.218,2.15353,0.61639,3.12759,1.17755c0.47519,0.27373,0.88577,0.23134,1.26776-0.09445
				c0.44955-0.38339,0.88904-0.78545,1.28659-1.22159c0.96106-1.05431,1.72186-2.24759,2.36697-3.51912
				c0.297-0.58537,0.18155-0.99048-0.23102-1.41335C430.01218,140.67038,428.94272,140.0054,427.67828,139.66545z"/>
			<g>
				<path d="M392.42535,217.26378c-0.64175-0.83832-1.42487-1.48215-2.47107-1.75954
					c-0.39139-0.10378-0.64145-0.03259-0.86896,0.28868c-0.10898,0.15385-0.21387,0.31093-0.32922,0.45988
					c-0.72443,0.93553-1.45126,1.8692-2.17139,2.79585c-0.84747-1.04489-1.95657-1.4846-3.23901-1.55014
					c-0.09445-0.00484-0.22452,0.10048-0.28925,0.1899c-0.73404,1.01398-1.46274,2.03189-2.18427,3.05482
					c-0.52872,0.74959-1.04465,1.50818-1.55469,2.24597c0.97055,0.41264,1.94046,0.7827,2.87085,1.23415
					c0.72934,0.35388,1.0957,0.26747,1.61462-0.28986c0.74887-0.80432,1.42044-1.68062,2.16946-2.57959
					c0.71292,0.32422,1.52722,0.6675,2.31433,1.06458c0.3631,0.18317,0.66934,0.16383,0.952-0.07664
					c0.4046-0.34424,0.81863-0.6899,1.16037-1.09285c0.65073-0.76732,1.27408-1.56026,1.86908-2.37169
					C392.75153,218.21819,392.77875,217.7254,392.42535,217.26378z"/>
				<path d="M387.51019,224.63857c-0.46066-0.35457-0.9949-0.62244-1.52228-0.87573
					c-0.14462-0.06946-0.47861-0.02177-0.55765,0.09048c-1.33762,1.90015-2.64868,3.819-3.9837,5.75999
					c0.13464,0.0386,0.23474,0.07613,0.33826,0.0956c0.88663,0.16682,1.73068,0.44464,2.50311,0.92352
					c0.36771,0.22794,0.75467,0.36647,1.15729,0.07513c0.17282-0.12505,0.34729-0.25455,0.49396-0.40791
					c1.11481-1.16589,1.97491-2.50653,2.65506-3.96236c0.07199-0.15404,0.06693-0.43565-0.02924-0.55988
					C388.24854,225.36867,387.91562,224.95062,387.51019,224.63857z"/>
			</g>
		</g>
		<g>
			<path d="M331.07993,190.62689c0,0.47466-0.02554,0.98323-0.07654,1.52544c-0.1362,1.27122-0.57794,2.82204-1.32568,4.65259
				c-0.81577,1.98312-1.73358,3.6275-2.75336,4.9325c-1.49579,1.93222-3.27203,3.24547-5.32834,3.9407
				c-0.62894,0.20346-1.13879,0.30511-1.52963,0.30511c-0.56085,0-0.84131-0.18665-0.84131-0.55933
				c0-0.50842,0.41629-1.12708,1.24927-1.85593c1.30856-1.08456,2.61713-2.16946,3.92612-3.25435
				c1.64835-1.37303,2.61713-2.3136,2.90631-2.82219c0.13583-0.25421,0.20395-0.56773,0.20395-0.94073
				c0-0.83018-0.28918-1.71178-0.86682-2.6441c-0.66281-1.05078-1.54678-1.88145-2.6514-2.49153
				c2.20926-4.77994,3.4501-7.10179,3.72217-6.96637C329.95816,185.65237,331.07993,187.71176,331.07993,190.62689
				L331.07993,190.62689z"/>
			<path d="M319.66125,177.17041c0.03387,0.16953,0.00833,0.48305-0.07651,0.94073
				c-0.20395,1.25441-0.47598,4.11038-0.81577,8.56792c-0.28928,3.78004-0.6716,6.55959-1.14728,8.33923
				c-1.32571,4.91568-3.02542,8.43265-5.09888,10.55119c-0.25491,0.27133-0.80743,0.55109-1.65714,0.83908
				c-0.901,0.32176-1.68259,0.48305-2.3454,0.48305c-0.86682,0-1.30026-0.0425-1.30026-0.12718
				c0-0.16953,0.90903-0.96611,2.72794-2.38989c3.27994-2.5591,5.18369-5.33911,5.71066-8.33923
				c0.22067-1.27122,0.39075-3.13556,0.50995-5.59332c0.11868-2.69501,0.21225-4.33051,0.28036-4.90697
				c0.13583-1.0508,0.58636-2.63538,1.35123-4.75441c0.74765-2.05067,1.30017-3.27098,1.65714-3.6611
				C319.57602,177.00119,319.64413,177.01785,319.66125,177.17041L319.66125,177.17041z"/>
			<path d="M317.61899,172.22301c-0.08514,0-0.18713,0.03426-0.30591,0.10181c-2.09048,1.28819-4.69968,3.27132-7.82669,5.94936
				c-3.75641,3.18678-5.77045,4.86334-6.04211,5.06682c-1.8017,1.39-3.29764,2.08476-4.48703,2.08476
				c-0.7991,0-1.45755-0.19902-1.97583-0.5974c-0.51855-0.39804-0.79468-0.59755-0.82861-0.59755
				c-0.1362,0-0.32303,0.16129-0.56076,0.48306c-1.24094,1.74602-4.1218,3.65286-8.64261,5.7205
				c-4.98007,2.28824-10.68201,4.14417-17.10666,5.56795c-7.51236,1.66135-15.05867,2.4917-22.63892,2.4917
				c-4.82719,0-9.27156-0.35602-13.33342-1.06792c-4.69096-0.81354-8.06503-1.99136-10.12126-3.53392
				c-0.66289-0.49146-1.11343-0.73743-1.35115-0.73743c-0.57805,0-0.97752,1.7798-1.19827,5.33926
				c-0.18681,3.03423,2.80443,5.22064,8.97404,6.55943c4.06186,0.8811,8.89746,1.32213,14.50616,1.32213
				c9.36482,0,18.11765-1.20367,26.25912-3.61037c6.6113-1.93221,12.33926-4.4913,17.18311-7.67809
				c3.9938-2.64427,6.5177-5.03415,7.57184-7.16983c0.08484-0.16922,0.20395-0.25421,0.35681-0.25421
				c0.11877,0,0.7988,0.52554,2.03958,1.57634c0.39075,0.32225,0.79865,0.48305,1.22379,0.48305
				c0.64563,0,1.38495-0.40677,2.21799-1.22031c0.6456-0.69476,1.28296-1.39842,1.91208-2.11031
				c0.86682-0.94897,2.36658-2.27016,4.49973-3.99907c2.13266-1.72873,3.87076-3.0255,5.2135-3.88994
				c0.33984-0.21997,0.80704-0.43216,1.40222-0.63562c0.4418-0.1524,0.82416-0.40677,1.14719-0.76263
				c1.49548-1.593,2.24353-3.0255,2.24353-4.29672C317.95044,172.41806,317.83975,172.22301,317.61899,172.22301z"/>
			<path d="M274.70871,167.60869c-0.18951-0.0497-0.51236-0.01297-0.61838,0.11368c-0.47668,0.56929-0.89282,1.18883-1.33939,1.7838
				c-0.52161,0.69498-1.05209,1.38327-1.5874,2.08585c-0.17947-0.20325-0.31348-0.41052-0.49734-0.55382
				c-0.8786-0.68465-1.86633-1.15186-2.96735-1.33157c-0.30853-0.05037-0.64874-0.12772-0.90997,0.2664
				c-1.02966,1.55345-2.10092,3.07933-3.15497,4.61665c-0.31,0.45213-0.61414,0.90826-0.95224,1.40894
				c0.22446,0.03911,0.38333,0.06416,0.54117,0.09473c0.98511,0.19075,1.87723,0.6071,2.73746,1.1097
				c0.18768,0.10965,0.41187,0.20206,0.62466,0.21532c0.73679,0.0459,1.17279-0.50435,1.5835-0.96407
				c0.67337-0.75378,1.24881-1.59503,1.9238-2.47534c0.85141,0.41527,1.76315,0.82863,2.64185,1.30316
				c0.37698,0.20358,0.70145,0.30185,1.06244,0.04036c0.25891-0.18756,0.53311-0.36574,0.75247-0.59418
				c0.96317-1.00302,1.83194-2.08395,2.54324-3.28172c0.27902-0.46986,0.56503-0.98042,0.28888-1.53894
				C276.81906,168.77092,275.96573,167.93832,274.70871,167.60869z"/>
			<g>
				<path d="M303.97433,167.39044c0.42389-0.34422,0.83124-0.72383,1.17825-1.14398c0.46429-0.56216,0.86401-1.17763,1.3421-1.84038
					c0.80682,0.39995,1.64658,0.79301,2.4606,1.2336c0.25021,0.13542,0.46347,0.09608,0.66788,0.01265
					c0.20166-0.08231,0.38266-0.23651,0.54599-0.388c1.07068-0.99303,1.98407-2.12047,2.76077-3.35315
					c0.18921-0.30028,0.44241-0.61189,0.26166-1.04936c-0.36899-0.89294-1.8349-2.17493-2.94089-2.25235
					c-0.14398-0.01007-0.34998,0.05525-0.43607,0.16034c-0.57758,0.70506-1.13043,1.43039-1.69141,2.14905
					c-0.32526,0.41669-0.65076,0.83318-0.95786,1.22629c-0.26874-0.2357-0.48026-0.46259-0.73038-0.63274
					c-0.72116-0.49063-1.50922-0.82646-2.39108-0.87759c-0.13486-0.00781-0.33243,0.06766-0.40723,0.17189
					c-1.13626,1.58351-2.25827,3.17729-3.37936,4.77164c-0.13516,0.1922-0.2457,0.4017-0.35364,0.58008
					c1.04398,0.4361,2.05197,0.83185,3.03568,1.28081C303.32202,167.61388,303.67355,167.6347,303.97433,167.39044z"/>
				<path d="M306.7825,159.15279c1.24078-1.15663,2.16135-2.54419,2.85648-4.08214c0.06705-0.14839,0.04745-0.42068-0.0491-0.54272
					c-0.31366-0.39642-0.64142-0.80273-1.03934-1.10602c-0.48178-0.36717-1.03387-0.64554-1.56894-0.93777
					c-0.27637-0.15092-0.51175-0.07594-0.6684,0.22632c-0.10254,0.19783-0.24323,0.37611-0.36926,0.56151
					c-1.15308,1.6962-2.3067,3.39204-3.41943,5.02811c0.94714,0.36359,1.90598,0.66156,2.79767,1.09703
					C305.98856,159.72252,306.34256,159.56288,306.7825,159.15279z"/>
			</g>
		</g>
		<g>
			<path d="M174.48116,195.43617c-0.1873,0-0.38251,0.21202-0.58646,0.6356c-1.10503,2.38989-2.2267,3.58484-3.36519,3.58484
				c-0.30591,0-0.6326-0.09309-0.93851-0.27975c-0.45895-0.28798-0.98593-0.43214-1.58063-0.43214
				c-2.03958,0-4.24091,1.3391-6.60304,4.01698c-3.16125,3.59325-4.74188,5.91525-4.74188,6.96635
				c0,0.25421,0.09309,0.38141,0.28038,0.38141c0.15288,0,0.62024-0.41566,1.40222-1.24585
				c1.00258-1.06776,2.02229-1.94934,3.05928-2.6441c0.91774-0.61024,1.69099-0.91536,2.31995-0.91536
				c0.45895,0,0.91774,0.15256,1.37669,0.45767c0.39075,0.25421,0.86208,0.38141,1.37192,0.38141
				c1.54637,0,3.16125-0.91536,4.84386-2.74591c1.80138-1.94887,2.91479-4.17795,3.33981-6.68661
				C174.82924,195.92795,174.76993,195.43617,174.48116,195.43617z"/>
			<path d="M213.41309,219.00578c-0.42892-0.11531-0.74161-0.01413-0.95081,0.32965c-0.52081,0.85587-1.03955,1.713-1.55618,2.57138
				c-0.81351,1.35162-1.6246,2.7047-2.44785,4.07568c0.14734,0.01158,0.26643,0.00926,0.38066,0.03174
				c1.10791,0.218,2.15352,0.61639,3.12759,1.17754c0.47519,0.27374,0.88574,0.23135,1.26776-0.09444
				c0.44954-0.38339,0.88902-0.78545,1.28659-1.2216c0.96103-1.05429,1.72183-2.24757,2.36696-3.5191
				c0.29701-0.58537,0.18153-0.99048-0.23102-1.41335C215.74698,220.01073,214.67751,219.34575,213.41309,219.00578z"/>
			<path d="M169.24222,180.03148c-0.42892-0.11531-0.74162-0.01413-0.95082,0.32965c-0.52081,0.85587-1.03954,1.713-1.55618,2.57138
				c-0.81351,1.35162-1.6246,2.7047-2.44785,4.07568c0.14734,0.01158,0.26643,0.00926,0.38066,0.03174
				c1.10791,0.218,2.15352,0.61639,3.12759,1.17754c0.47519,0.27374,0.88574,0.23135,1.26776-0.09444
				c0.44955-0.38339,0.88902-0.78545,1.28659-1.2216c0.96104-1.05429,1.72183-2.24757,2.36697-3.5191
				c0.297-0.58537,0.18153-0.99048-0.23102-1.41335C171.57611,181.03642,170.50664,180.37144,169.24222,180.03148z"/>
			<path d="M203.54977,218.32764c-0.1895-0.0497-0.51234-0.01297-0.61839,0.11368c-0.47665,0.56929-0.89282,1.18883-1.33937,1.7838
				c-0.52161,0.69498-1.05209,1.38327-1.5874,2.08585c-0.17946-0.20325-0.31346-0.41052-0.49734-0.55382
				c-0.87859-0.68465-1.86632-1.15186-2.96733-1.33157c-0.30853-0.05037-0.64874-0.1277-0.90997,0.2664
				c-1.02968,1.55345-2.10092,3.07933-3.15497,4.61665c-0.31,0.45213-0.61414,0.90826-0.95226,1.40894
				c0.22444,0.03911,0.38333,0.06416,0.54115,0.09473c0.98512,0.19075,1.87726,0.6071,2.73747,1.1097
				c0.18768,0.10965,0.41187,0.20206,0.62466,0.21532c0.7368,0.04591,1.17281-0.50433,1.5835-0.96407
				c0.67336-0.75378,1.24883-1.59503,1.92381-2.47533c0.85141,0.41525,1.76314,0.82861,2.64183,1.30315
				c0.377,0.20358,0.70145,0.30185,1.06244,0.04036c0.25893-0.18756,0.5331-0.36574,0.75247-0.59418
				c0.96317-1.00302,1.83195-2.08395,2.54324-3.28172c0.27904-0.46986,0.56503-0.98041,0.28888-1.53894
				C205.66013,219.48987,204.80679,218.65727,203.54977,218.32764z"/>
			<g>
				<path d="M218.93515,186.72171c-0.08517,0-0.28038,0.18666-0.5863,0.55934c-0.68001,0.83067-1.2238,1.41299-1.63168,1.71812
					c-0.25485,0.20346-0.50145,0.30511-0.73933,0.30511c0.08485,0-0.39948-0.17793-1.45311-0.53397
					c-0.50986-0.1692-0.9604-0.25421-1.35117-0.25421c-0.69714,0-1.65721,0.50018-2.88086,1.50006
					c-1.36003,1.27122-2.34549,1.95631-2.95731,2.58321c-2.44746,1.93222-4.60614,3.12715-6.47554,3.58484
					c2.05621-2.38989,3.08481-4.69478,3.08481-6.91545c0-2.32202-1.14737-3.48318-3.44179-3.48318
					c-0.45895,0-0.952,0.05963-1.47865,0.17793c-3.07642,0.64433-6.02547,3.29684-8.84656,7.95784
					c-0.44214,0.74614-0.66289,1.3475-0.66289,1.80518c0,0.746,0.56091,1.39842,1.68275,1.95775
					c-0.71396,0.35587-1.52132,0.5338-2.42207,0.5338c-1.90367,0-3.28654-0.4913-4.01698-1.47453
					c-0.68002-0.89822-1.01987-2.15233-1.01987-3.76292c0-1.67799,0.45894-4.11862,1.37668-7.32222
					c0.15305-0.52509,0.22948-0.94897,0.22948-1.27122c0-0.38965-0.10197-0.5847-0.30591-0.5847
					c-0.64609,0-1.35115,1.10201-2.11601,3.30524c-1.61488,4.67796-2.42192,8.46626-2.42192,11.36475
					c0,4.57631,2.06241,6.86455,6.05655,6.86455c1.8185,0,4.02808-0.72855,6.62857-2.18658
					c1.98851-1.11867,3.68791-2.33026,5.09885-3.63559c2.07335,0,4.01936-0.4323,5.83818-1.29675
					c1.4276-0.67763,2.49837-1.44916,3.21233-2.31361c1.12167-1.15244,1.73349-1.7695,1.83546-1.87131
					c0.81592-0.81354,1.52972-1.22032,2.14154-1.22032c0.11879,0,0.78168,0.20348,1.98866,0.61024
					c0.35683,0.11877,0.65402,0.17793,0.89221,0.17793c0.69667,0,1.53812-0.51683,2.5239-1.55096
					c1.00273-1.01701,1.6994-2.39577,2.09064-4.10802C218.99461,187.12849,219.03711,186.72171,218.93515,186.72171z
					 M196.85713,196.43843c-1.2579,0-2.42192-0.20346-3.49269-0.61024c-1.17274-0.45752-1.75903-1.01685-1.75903-1.67799
					c0-0.25421,0.08484-0.50842,0.25485-0.76263c1.35956-1.98312,3.16141-3.17805,5.40475-3.58499
					c0.32272-0.0674,0.63736-0.10165,0.94344-0.10165c1.76744,0,2.6514,0.73726,2.6514,2.21196
					C200.85985,193.62512,199.52534,195.13342,196.85713,196.43843z"/>
				<g>
					<path d="M267.65479,132.26698c-0.11911,0-0.79041,0.63562-2.01404,1.90683c-2.97446,3.06801-12.246,9.16167-27.81422,18.2802
						c-17.25128,10.08527-27.55937,16.40761-30.92456,18.96671c-4.87825,3.71202-8.29451,7.03424-10.24876,9.96649
						c-1.47865,2.20355-2.21799,3.6102-2.21799,4.22044c0,0.13576,0.05107,0.20331,0.15305,0.20331
						c0.27165,0,0.8922-0.50842,1.86099-1.52544c2.73625-2.84756,5.60872-5.3813,8.61708-7.60197
						c2.70247-1.99977,12.5941-8.18668,29.67538-18.55977c15.3132-9.30534,25.23924-16.00037,29.77718-20.08537
						c1.61456-1.44044,2.67694-3.23721,3.1868-5.39003c0.01682-0.08452,0.02551-0.1692,0.02551-0.25421
						C267.7312,132.32661,267.70569,132.28412,267.65479,132.26698z"/>
					<path d="M230.87222,153.66252c0.74896-0.70192,1.43123-1.47786,2.11136-2.24904
						c0.29964-0.33975,0.55763-0.72926,0.7672-1.13127c0.16174-0.31029-0.01613-0.55199-0.35292-0.48363
						c-0.27026,0.05486-0.56549,0.20134-0.7556,0.39804c-0.68742,0.71127-1.3148,1.48065-2.00337,2.19073
						c-0.75146,0.77493-1.54005,1.51436-2.32384,2.25725c-0.37975,0.35995-0.78593,0.69196-1.17943,1.03745
						c-0.98373,0.86374-1.96889,1.72591-2.9478,2.59509c-0.10074,0.08945-0.22511,0.2095-0.24358,0.33441
						c-0.0107,0.07231,0.55032-0.19157,0.71506-0.28375c1.35921-0.76047,2.55536-1.74014,3.80219-2.67285
						C229.29572,155.0309,230.11278,154.37427,230.87222,153.66252z"/>
				</g>
			</g>
		</g>
	</g>
</g>
</svg>
